<svg xmlns="http://www.w3.org/2000/svg" width="140" height="140" viewBox="0 0 140 140">
  <path d="M 139.00 139.50 L 138.00 139.50 L 137.00 139.50 L 136.00 139.50 L 135.00 139.50 L 134.00 139.50 L 133.00 139.50 L 132.00 139.50 L 131.00 139.50 L 130.00 139.50 L 129.00 139.50 L 128.00 139.50 L 127.00 139.50 L 126.00 139.50 L 125.00 139.50 L 124.00 139.50 L 123.00 139.50 L 122.00 139.50 L 121.00 139.50 L 120.00 139.50 L 119.00 139.50 L 118.00 139.50 L 117.00 139.50 L 116.00 139.50 L 115.00 139.50 L 114.00 139.50 L 113.00 139.50 L 112.00 139.50 L 111.00 139.50 L 110.00 139.50 L 109.00 139.50 L 108.00 139.50 L 107.00 139.50 L 106.00 139.50 L 105.00 139.50 L 104.00 139.50 L 103.00 139.50 L 102.00 139.50 L 101.00 139.50 L 100.00 139.50 L 99.00 139.50 L 98.00 139.50 L 97.00 139.50 L 96.00 139.50 L 95.00 139.50 L 94.00 139.50 L 93.00 139.50 L 92.00 139.50 L 91.00 139.50 L 90.00 139.50 L 89.00 139.50 L 88.00 139.50 L 87.00 139.50 L 86.00 139.50 L 85.00 139.50 L 84.00 139.50 L 83.00 139.50 L 82.00 139.50 L 81.00 139.50 L 80.00 139.50 L 79.00 139.50 L 78.00 139.50 L 77.00 139.50 L 76.00 139.50 L 75.00 139.50 L 74.00 139.50 L 73.00 139.50 L 72.00 139.50 L 71.00 139.50 L 70.00 139.50 L 69.00 139.50 L 68.00 139.50 L 67.00 139.50 L 66.00 139.50 L 65.00 139.50 L 64.00 139.50 L 63.00 139.50 L 62.00 139.50 L 61.00 139.50 L 60.00 139.50 L 59.00 139.50 L 58.00 139.50 L 57.00 139.50 L 56.00 139.50 L 55.00 139.50 L 54.00 139.50 L 53.00 139.50 L 52.00 139.50 L 51.00 139.50 L 50.00 139.50 L 49.00 139.50 L 48.00 139.50 L 47.00 139.50 L 46.00 139.50 L 45.00 139.50 L 44.00 139.50 L 43.00 139.50 L 42.00 139.50 L 41.00 139.50 L 40.00 139.50 L 39.00 139.50 L 38.00 139.50 L 37.00 139.50 L 36.00 139.50 L 35.00 139.50 L 34.00 139.50 L 33.00 139.50 L 32.00 139.50 L 31.00 139.50 L 30.00 139.50 L 29.00 139.50 L 28.00 139.50 L 27.00 139.50 L 26.00 139.50 L 25.00 139.50 L 24.00 139.50 L 23.00 139.50 L 22.00 139.50 L 21.00 139.50 L 20.00 139.50 L 19.00 139.50 L 18.00 139.50 L 17.00 139.50 L 16.00 139.50 L 15.00 139.50 L 14.00 139.50 L 13.00 139.50 L 12.00 139.50 L 11.00 139.50 L 10.00 139.50 L 9.00 139.50 L 8.00 139.50 L 7.00 139.50 L 6.00 139.50 L 5.00 139.50 L 4.00 139.50 L 3.00 139.50 L 2.00 139.50 L 1.00 139.50 L 0.00 139.50 L -0.50 139.00 L -0.50 138.00 L -0.50 137.00 L -0.50 136.00 L -0.50 135.00 L -0.50 134.00 L -0.50 133.00 L -0.50 132.00 L -0.50 131.00 L -0.50 130.00 L -0.50 129.00 L -0.50 128.00 L -0.50 127.00 L -0.50 126.00 L -0.50 125.00 L -0.50 124.00 L -0.50 123.00 L -0.50 122.00 L -0.50 121.00 L -0.50 120.00 L -0.50 119.00 L -0.50 118.00 L -0.50 117.00 L -0.50 116.00 L -0.50 115.00 L -0.50 114.00 L -0.50 113.00 L -0.50 112.00 L -0.50 111.00 L -0.50 110.00 L -0.50 109.00 L -0.50 108.00 L -0.50 107.00 L -0.50 106.00 L -0.50 105.00 L -0.50 104.00 L -0.50 103.00 L -0.50 102.00 L -0.50 101.00 L -0.50 100.00 L -0.50 99.00 L -0.50 98.00 L -0.50 97.00 L -0.50 96.00 L -0.50 95.00 L -0.50 94.00 L -0.50 93.00 L -0.50 92.00 L -0.50 91.00 L -0.50 90.00 L -0.50 89.00 L -0.50 88.00 L -0.50 87.00 L -0.50 86.00 L -0.50 85.00 L -0.50 84.00 L -0.50 83.00 L -0.50 82.00 L -0.50 81.00 L -0.50 80.00 L -0.50 79.00 L -0.50 78.00 L -0.50 77.00 L -0.50 76.00 L -0.50 75.00 L -0.50 74.00 L -0.50 73.00 L -0.50 72.00 L -0.50 71.00 L -0.50 70.00 L -0.50 69.00 L -0.50 68.00 L -0.50 67.00 L -0.50 66.00 L -0.50 65.00 L -0.50 64.00 L -0.50 63.00 L -0.50 62.00 L -0.50 61.00 L -0.50 60.00 L -0.50 59.00 L -0.50 58.00 L -0.50 57.00 L -0.50 56.00 L -0.50 55.00 L -0.50 54.00 L -0.50 53.00 L -0.50 52.00 L -0.50 51.00 L -0.50 50.00 L -0.50 49.00 L -0.50 48.00 L -0.50 47.00 L -0.50 46.00 L -0.50 45.00 L -0.50 44.00 L -0.50 43.00 L -0.50 42.00 L -0.50 41.00 L -0.50 40.00 L -0.50 39.00 L -0.50 38.00 L -0.50 37.00 L -0.50 36.00 L -0.50 35.00 L -0.50 34.00 L -0.50 33.00 L -0.50 32.00 L -0.50 31.00 L -0.50 30.00 L -0.50 29.00 L -0.50 28.00 L -0.50 27.00 L -0.50 26.00 L -0.50 25.00 L -0.50 24.00 L -0.50 23.00 L -0.50 22.00 L -0.50 21.00 L -0.50 20.00 L -0.50 19.00 L -0.50 18.00 L -0.50 17.00 L -0.50 16.00 L -0.50 15.00 L -0.50 14.00 L -0.50 13.00 L -0.50 12.00 L -0.50 11.00 L -0.50 10.00 L -0.50 9.00 L -0.50 8.00 L -0.50 7.00 L -0.50 6.00 L -0.50 5.00 L -0.50 4.00 L -0.50 3.00 L -0.50 2.00 L -0.50 1.00 L -0.50 0.00 L 0.00 -0.50 L 1.00 -0.50 L 2.00 -0.50 L 3.00 -0.50 L 4.00 -0.50 L 5.00 -0.50 L 6.00 -0.50 L 7.00 -0.50 L 8.00 -0.50 L 9.00 -0.50 L 10.00 -0.50 L 11.00 -0.50 L 12.00 -0.50 L 13.00 -0.50 L 14.00 -0.50 L 15.00 -0.50 L 16.00 -0.50 L 17.00 -0.50 L 18.00 -0.50 L 19.00 -0.50 L 20.00 -0.50 L 21.00 -0.50 L 22.00 -0.50 L 23.00 -0.50 L 24.00 -0.50 L 25.00 -0.50 L 26.00 -0.50 L 27.00 -0.50 L 28.00 -0.50 L 29.00 -0.50 L 30.00 -0.50 L 31.00 -0.50 L 32.00 -0.50 L 33.00 -0.50 L 34.00 -0.50 L 35.00 -0.50 L 36.00 -0.50 L 37.00 -0.50 L 38.00 -0.50 L 39.00 -0.50 L 40.00 -0.50 L 41.00 -0.50 L 42.00 -0.50 L 43.00 -0.50 L 44.00 -0.50 L 45.00 -0.50 L 46.00 -0.50 L 47.00 -0.50 L 48.00 -0.50 L 49.00 -0.50 L 50.00 -0.50 L 51.00 -0.50 L 52.00 -0.50 L 53.00 -0.50 L 54.00 -0.50 L 55.00 -0.50 L 56.00 -0.50 L 57.00 -0.50 L 58.00 -0.50 L 59.00 -0.50 L 60.00 -0.50 L 61.00 -0.50 L 62.00 -0.50 L 63.00 -0.50 L 64.00 -0.50 L 65.00 -0.50 L 66.00 -0.50 L 67.00 -0.50 L 68.00 -0.50 L 69.00 -0.50 L 70.00 -0.50 L 71.00 -0.50 L 72.00 -0.50 L 73.00 -0.50 L 74.00 -0.50 L 75.00 -0.50 L 76.00 -0.50 L 77.00 -0.50 L 78.00 -0.50 L 79.00 -0.50 L 80.00 -0.50 L 81.00 -0.50 L 82.00 -0.50 L 83.00 -0.50 L 84.00 -0.50 L 85.00 -0.50 L 86.00 -0.50 L 87.00 -0.50 L 88.00 -0.50 L 89.00 -0.50 L 90.00 -0.50 L 91.00 -0.50 L 92.00 -0.50 L 93.00 -0.50 L 94.00 -0.50 L 95.00 -0.50 L 96.00 -0.50 L 97.00 -0.50 L 98.00 -0.50 L 99.00 -0.50 L 100.00 -0.50 L 101.00 -0.50 L 102.00 -0.50 L 103.00 -0.50 L 104.00 -0.50 L 105.00 -0.50 L 106.00 -0.50 L 107.00 -0.50 L 108.00 -0.50 L 109.00 -0.50 L 110.00 -0.50 L 111.00 -0.50 L 112.00 -0.50 L 113.00 -0.50 L 114.00 -0.50 L 115.00 -0.50 L 116.00 -0.50 L 117.00 -0.50 L 118.00 -0.50 L 119.00 -0.50 L 120.00 -0.50 L 121.00 -0.50 L 122.00 -0.50 L 123.00 -0.50 L 124.00 -0.50 L 125.00 -0.50 L 126.00 -0.50 L 127.00 -0.50 L 128.00 -0.50 L 129.00 -0.50 L 130.00 -0.50 L 131.00 -0.50 L 132.00 -0.50 L 133.00 -0.50 L 134.00 -0.50 L 135.00 -0.50 L 136.00 -0.50 L 137.00 -0.50 L 138.00 -0.50 L 139.00 -0.50 L 139.50 0.00 L 139.50 1.00 L 139.50 2.00 L 139.50 3.00 L 139.50 4.00 L 139.50 5.00 L 139.50 6.00 L 139.50 7.00 L 139.50 8.00 L 139.50 9.00 L 139.50 10.00 L 139.50 11.00 L 139.50 12.00 L 139.50 13.00 L 139.50 14.00 L 139.50 15.00 L 139.50 16.00 L 139.50 17.00 L 139.50 18.00 L 139.50 19.00 L 139.50 20.00 L 139.50 21.00 L 139.50 22.00 L 139.50 23.00 L 139.50 24.00 L 139.50 25.00 L 139.50 26.00 L 139.50 27.00 L 139.50 28.00 L 139.50 29.00 L 139.50 30.00 L 139.50 31.00 L 139.50 32.00 L 139.50 33.00 L 139.50 34.00 L 139.50 35.00 L 139.50 36.00 L 139.50 37.00 L 139.50 38.00 L 139.50 39.00 L 139.50 40.00 L 139.50 41.00 L 139.50 42.00 L 139.50 43.00 L 139.50 44.00 L 139.50 45.00 L 139.50 46.00 L 139.50 47.00 L 139.50 48.00 L 139.50 49.00 L 139.50 50.00 L 139.50 51.00 L 139.50 52.00 L 139.50 53.00 L 139.50 54.00 L 139.50 55.00 L 139.50 56.00 L 139.50 57.00 L 139.50 58.00 L 139.50 59.00 L 139.50 60.00 L 139.50 61.00 L 139.50 62.00 L 139.50 63.00 L 139.50 64.00 L 139.50 65.00 L 139.50 66.00 L 139.50 67.00 L 139.50 68.00 L 139.50 69.00 L 139.50 70.00 L 139.50 71.00 L 139.50 72.00 L 139.50 73.00 L 139.50 74.00 L 139.50 75.00 L 139.50 76.00 L 139.50 77.00 L 139.50 78.00 L 139.50 79.00 L 139.50 80.00 L 139.50 81.00 L 139.50 82.00 L 139.50 83.00 L 139.50 84.00 L 139.50 85.00 L 139.50 86.00 L 139.50 87.00 L 139.50 88.00 L 139.50 89.00 L 139.50 90.00 L 139.50 91.00 L 139.50 92.00 L 139.50 93.00 L 139.50 94.00 L 139.50 95.00 L 139.50 96.00 L 139.50 97.00 L 139.50 98.00 L 139.50 99.00 L 139.50 100.00 L 139.50 101.00 L 139.50 102.00 L 139.50 103.00 L 139.50 104.00 L 139.50 105.00 L 139.50 106.00 L 139.50 107.00 L 139.50 108.00 L 139.50 109.00 L 139.50 110.00 L 139.50 111.00 L 139.50 112.00 L 139.50 113.00 L 139.50 114.00 L 139.50 115.00 L 139.50 116.00 L 139.50 117.00 L 139.50 118.00 L 139.50 119.00 L 139.50 120.00 L 139.50 121.00 L 139.50 122.00 L 139.50 123.00 L 139.50 124.00 L 139.50 125.00 L 139.50 126.00 L 139.50 127.00 L 139.50 128.00 L 139.50 129.00 L 139.50 130.00 L 139.50 131.00 L 139.50 132.00 L 139.50 133.00 L 139.50 134.00 L 139.50 135.00 L 139.50 136.00 L 139.50 137.00 L 139.50 138.00 L 139.50 139.00 L 139.00 139.50 Z M 127.50 127.00 L 127.50 126.00 L 127.50 125.00 L 127.50 124.00 L 127.50 123.00 L 127.50 122.00 L 127.50 121.00 L 127.50 120.00 L 127.50 119.00 L 127.50 118.00 L 127.50 117.00 L 127.50 116.00 L 127.50 115.00 L 127.50 114.00 L 127.50 113.00 L 127.50 112.00 L 127.50 111.00 L 127.50 110.00 L 127.50 109.00 L 127.50 108.00 L 127.50 107.00 L 127.50 106.00 L 127.50 105.00 L 127.50 104.00 L 127.50 103.00 L 127.50 102.00 L 127.50 101.00 L 127.50 100.00 L 127.50 99.00 L 127.50 98.00 L 127.50 97.00 L 127.50 96.00 L 127.50 95.00 L 127.50 94.00 L 127.50 93.00 L 127.50 92.00 L 127.50 91.00 L 127.50 90.00 L 127.50 89.00 L 127.50 88.00 L 127.50 87.00 L 127.50 86.00 L 127.50 85.00 L 127.50 84.00 L 127.50 83.00 L 127.50 82.00 L 127.50 81.00 L 127.50 80.00 L 127.50 79.00 L 127.50 78.00 L 127.50 77.00 L 127.50 76.00 L 127.50 75.00 L 127.50 74.00 L 127.50 73.00 L 127.50 72.00 L 127.00 71.50 L 126.00 71.50 L 125.00 71.50 L 124.00 71.50 L 123.00 71.50 L 122.00 71.50 L 121.00 71.50 L 120.00 71.50 L 119.00 71.50 L 118.00 71.50 L 117.00 71.50 L 116.00 71.50 L 115.00 71.50 L 114.50 71.00 L 114.50 70.00 L 114.50 69.00 L 114.50 68.00 L 115.00 67.50 L 116.00 67.50 L 117.00 67.50 L 118.00 67.50 L 119.00 67.50 L 120.00 67.50 L 121.00 67.50 L 122.00 67.50 L 123.00 67.50 L 124.00 67.50 L 125.00 67.50 L 126.00 67.50 L 127.00 67.50 L 127.50 67.00 L 127.50 66.00 L 127.50 65.00 L 127.50 64.00 L 127.50 63.00 L 127.50 62.00 L 127.50 61.00 L 127.50 60.00 L 127.50 59.00 L 127.50 58.00 L 127.50 57.00 L 127.50 56.00 L 127.50 55.00 L 127.50 54.00 L 127.50 53.00 L 127.50 52.00 L 127.50 51.00 L 127.50 50.00 L 127.50 49.00 L 127.50 48.00 L 127.50 47.00 L 127.50 46.00 L 127.50 45.00 L 127.50 44.00 L 127.50 43.00 L 127.50 42.00 L 127.50 41.00 L 127.50 40.00 L 127.50 39.00 L 127.50 38.00 L 127.50 37.00 L 127.50 36.00 L 127.50 35.00 L 127.50 34.00 L 127.50 33.00 L 127.50 32.00 L 127.50 31.00 L 127.50 30.00 L 127.50 29.00 L 127.50 28.00 L 127.50 27.00 L 127.50 26.00 L 127.50 25.00 L 127.50 24.00 L 127.50 23.00 L 127.50 22.00 L 127.50 21.00 L 127.50 20.00 L 127.50 19.00 L 127.50 18.00 L 127.50 17.00 L 127.50 16.00 L 127.50 15.00 L 127.50 14.00 L 127.50 13.00 L 127.50 12.00 L 127.00 11.50 L 126.00 11.50 L 125.00 11.50 L 124.00 11.50 L 123.00 11.50 L 122.00 11.50 L 121.00 11.50 L 120.00 11.50 L 119.00 11.50 L 118.00 11.50 L 117.00 11.50 L 116.00 11.50 L 115.00 11.50 L 114.00 11.50 L 113.00 11.50 L 112.00 11.50 L 111.00 11.50 L 110.00 11.50 L 109.00 11.50 L 108.00 11.50 L 107.00 11.50 L 106.00 11.50 L 105.00 11.50 L 104.00 11.50 L 103.00 11.50 L 102.00 11.50 L 101.00 11.50 L 100.00 11.50 L 99.00 11.50 L 98.00 11.50 L 97.00 11.50 L 96.00 11.50 L 95.00 11.50 L 94.00 11.50 L 93.00 11.50 L 92.00 11.50 L 91.00 11.50 L 90.00 11.50 L 89.00 11.50 L 88.00 11.50 L 87.00 11.50 L 86.00 11.50 L 85.00 11.50 L 84.00 11.50 L 83.00 11.50 L 82.00 11.50 L 81.00 11.50 L 80.00 11.50 L 79.00 11.50 L 78.00 11.50 L 77.00 11.50 L 76.00 11.50 L 75.00 11.50 L 74.00 11.50 L 73.00 11.50 L 72.00 11.50 L 71.50 12.00 L 71.50 13.00 L 71.50 14.00 L 71.50 15.00 L 71.50 16.00 L 71.50 17.00 L 71.50 18.00 L 71.50 19.00 L 71.50 20.00 L 71.50 21.00 L 71.50 22.00 L 71.50 23.00 L 71.00 23.50 L 70.00 23.50 L 69.00 23.50 L 68.00 23.50 L 67.50 23.00 L 67.50 22.00 L 67.50 21.00 L 67.50 20.00 L 67.50 19.00 L 67.50 18.00 L 67.50 17.00 L 67.50 16.00 L 67.50 15.00 L 67.50 14.00 L 67.50 13.00 L 67.50 12.00 L 67.00 11.50 L 66.00 11.50 L 65.00 11.50 L 64.00 11.50 L 63.00 11.50 L 62.00 11.50 L 61.00 11.50 L 60.00 11.50 L 59.00 11.50 L 58.00 11.50 L 57.00 11.50 L 56.00 11.50 L 55.00 11.50 L 54.00 11.50 L 53.00 11.50 L 52.00 11.50 L 51.00 11.50 L 50.00 11.50 L 49.00 11.50 L 48.00 11.50 L 47.00 11.50 L 46.00 11.50 L 45.00 11.50 L 44.00 11.50 L 43.00 11.50 L 42.00 11.50 L 41.00 11.50 L 40.00 11.50 L 39.00 11.50 L 38.00 11.50 L 37.00 11.50 L 36.00 11.50 L 35.00 11.50 L 34.00 11.50 L 33.00 11.50 L 32.00 11.50 L 31.00 11.50 L 30.00 11.50 L 29.00 11.50 L 28.00 11.50 L 27.00 11.50 L 26.00 11.50 L 25.00 11.50 L 24.00 11.50 L 23.00 11.50 L 22.00 11.50 L 21.00 11.50 L 20.00 11.50 L 19.00 11.50 L 18.00 11.50 L 17.00 11.50 L 16.00 11.50 L 15.00 11.50 L 14.00 11.50 L 13.00 11.50 L 12.00 11.50 L 11.50 12.00 L 11.50 13.00 L 11.50 14.00 L 11.50 15.00 L 11.50 16.00 L 11.50 17.00 L 11.50 18.00 L 11.50 19.00 L 11.50 20.00 L 11.50 21.00 L 11.50 22.00 L 11.50 23.00 L 11.50 24.00 L 11.50 25.00 L 11.50 26.00 L 11.50 27.00 L 11.50 28.00 L 11.50 29.00 L 11.50 30.00 L 11.50 31.00 L 11.50 32.00 L 11.50 33.00 L 11.50 34.00 L 11.50 35.00 L 11.50 36.00 L 11.50 37.00 L 11.50 38.00 L 11.50 39.00 L 11.50 40.00 L 11.50 41.00 L 11.50 42.00 L 11.50 43.00 L 11.50 44.00 L 11.50 45.00 L 11.50 46.00 L 11.50 47.00 L 11.50 48.00 L 11.50 49.00 L 11.50 50.00 L 11.50 51.00 L 11.50 52.00 L 11.50 53.00 L 11.50 54.00 L 11.50 55.00 L 11.50 56.00 L 11.50 57.00 L 11.50 58.00 L 11.50 59.00 L 11.50 60.00 L 11.50 61.00 L 11.50 62.00 L 11.50 63.00 L 11.50 64.00 L 11.50 65.00 L 11.50 66.00 L 11.50 67.00 L 12.00 67.50 L 13.00 67.50 L 14.00 67.50 L 15.00 67.50 L 16.00 67.50 L 17.00 67.50 L 18.00 67.50 L 19.00 67.50 L 20.00 67.50 L 21.00 67.50 L 22.00 67.50 L 23.00 67.50 L 23.50 68.00 L 23.50 69.00 L 23.50 70.00 L 23.50 71.00 L 23.00 71.50 L 22.00 71.50 L 21.00 71.50 L 20.00 71.50 L 19.00 71.50 L 18.00 71.50 L 17.00 71.50 L 16.00 71.50 L 15.00 71.50 L 14.00 71.50 L 13.00 71.50 L 12.00 71.50 L 11.50 72.00 L 11.50 73.00 L 11.50 74.00 L 11.50 75.00 L 11.50 76.00 L 11.50 77.00 L 11.50 78.00 L 11.50 79.00 L 11.50 80.00 L 11.50 81.00 L 11.50 82.00 L 11.50 83.00 L 11.50 84.00 L 11.50 85.00 L 11.50 86.00 L 11.50 87.00 L 11.50 88.00 L 11.50 89.00 L 11.50 90.00 L 11.50 91.00 L 11.50 92.00 L 11.50 93.00 L 11.50 94.00 L 11.50 95.00 L 11.50 96.00 L 11.50 97.00 L 11.50 98.00 L 11.50 99.00 L 11.50 100.00 L 11.50 101.00 L 11.50 102.00 L 11.50 103.00 L 11.50 104.00 L 11.50 105.00 L 11.50 106.00 L 11.50 107.00 L 11.50 108.00 L 11.50 109.00 L 11.50 110.00 L 11.50 111.00 L 11.50 112.00 L 11.50 113.00 L 11.50 114.00 L 11.50 115.00 L 11.50 116.00 L 11.50 117.00 L 11.50 118.00 L 11.50 119.00 L 11.50 120.00 L 11.50 121.00 L 11.50 122.00 L 11.50 123.00 L 11.50 124.00 L 11.50 125.00 L 11.50 126.00 L 11.50 127.00 L 12.00 127.50 L 13.00 127.50 L 14.00 127.50 L 15.00 127.50 L 16.00 127.50 L 17.00 127.50 L 18.00 127.50 L 19.00 127.50 L 20.00 127.50 L 21.00 127.50 L 22.00 127.50 L 23.00 127.50 L 24.00 127.50 L 25.00 127.50 L 26.00 127.50 L 27.00 127.50 L 28.00 127.50 L 29.00 127.50 L 30.00 127.50 L 31.00 127.50 L 32.00 127.50 L 33.00 127.50 L 34.00 127.50 L 35.00 127.50 L 36.00 127.50 L 37.00 127.50 L 38.00 127.50 L 39.00 127.50 L 40.00 127.50 L 41.00 127.50 L 42.00 127.50 L 43.00 127.50 L 44.00 127.50 L 45.00 127.50 L 46.00 127.50 L 47.00 127.50 L 48.00 127.50 L 49.00 127.50 L 50.00 127.50 L 51.00 127.50 L 52.00 127.50 L 53.00 127.50 L 54.00 127.50 L 55.00 127.50 L 56.00 127.50 L 57.00 127.50 L 58.00 127.50 L 59.00 127.50 L 60.00 127.50 L 61.00 127.50 L 62.00 127.50 L 63.00 127.50 L 64.00 127.50 L 65.00 127.50 L 66.00 127.50 L 67.00 127.50 L 67.50 127.00 L 67.50 126.00 L 67.50 125.00 L 67.50 124.00 L 67.50 123.00 L 67.50 122.00 L 67.50 121.00 L 67.50 120.00 L 67.50 119.00 L 67.50 118.00 L 67.50 117.00 L 67.50 116.00 L 68.00 115.50 L 69.00 115.50 L 70.00 115.50 L 71.00 115.50 L 71.50 116.00 L 71.50 117.00 L 71.50 118.00 L 71.50 119.00 L 71.50 120.00 L 71.50 121.00 L 71.50 122.00 L 71.50 123.00 L 71.50 124.00 L 71.50 125.00 L 71.50 126.00 L 71.50 127.00 L 72.00 127.50 L 73.00 127.50 L 74.00 127.50 L 75.00 127.50 L 76.00 127.50 L 77.00 127.50 L 78.00 127.50 L 79.00 127.50 L 80.00 127.50 L 81.00 127.50 L 82.00 127.50 L 83.00 127.50 L 84.00 127.50 L 85.00 127.50 L 86.00 127.50 L 87.00 127.50 L 88.00 127.50 L 89.00 127.50 L 90.00 127.50 L 91.00 127.50 L 92.00 127.50 L 93.00 127.50 L 94.00 127.50 L 95.00 127.50 L 96.00 127.50 L 97.00 127.50 L 98.00 127.50 L 99.00 127.50 L 100.00 127.50 L 101.00 127.50 L 102.00 127.50 L 103.00 127.50 L 104.00 127.50 L 105.00 127.50 L 106.00 127.50 L 107.00 127.50 L 108.00 127.50 L 109.00 127.50 L 110.00 127.50 L 111.00 127.50 L 112.00 127.50 L 113.00 127.50 L 114.00 127.50 L 115.00 127.50 L 116.00 127.50 L 117.00 127.50 L 118.00 127.50 L 119.00 127.50 L 120.00 127.50 L 121.00 127.50 L 122.00 127.50 L 123.00 127.50 L 124.00 127.50 L 125.00 127.50 L 126.00 127.50 L 127.00 127.50 L 127.50 127.00 Z M 93.00 106.50 L 92.00 106.50 L 91.00 106.50 L 90.00 106.50 L 89.00 106.50 L 88.00 106.50 L 87.00 106.50 L 86.00 106.50 L 85.00 106.50 L 84.00 106.50 L 83.00 106.50 L 82.00 106.50 L 81.00 106.50 L 80.00 106.50 L 79.00 106.50 L 78.00 106.50 L 77.00 106.50 L 76.00 106.50 L 75.00 106.50 L 74.00 106.50 L 73.00 106.50 L 72.00 106.50 L 71.00 106.50 L 70.00 106.50 L 69.00 106.50 L 68.00 106.50 L 67.00 106.50 L 66.00 106.50 L 65.00 106.50 L 64.00 106.50 L 63.00 106.50 L 62.00 106.50 L 61.00 106.50 L 60.00 106.50 L 59.00 106.50 L 58.00 106.50 L 57.00 106.50 L 56.00 106.50 L 55.00 106.50 L 54.00 106.50 L 53.00 106.50 L 52.00 106.50 L 51.00 106.50 L 50.00 106.50 L 49.00 106.50 L 48.00 106.50 L 47.50 106.00 L 47.00 105.50 L 46.00 105.50 L 45.00 105.50 L 44.50 105.00 L 44.00 104.50 L 43.00 104.50 L 42.50 104.00 L 42.00 103.50 L 41.50 103.00 L 41.00 102.50 L 40.50 102.00 L 40.00 101.50 L 39.50 101.00 L 39.00 100.50 L 38.50 100.00 L 38.00 99.50 L 37.50 99.00 L 37.50 98.00 L 37.00 97.50 L 36.50 97.00 L 36.50 96.00 L 36.00 95.50 L 35.50 95.00 L 35.50 94.00 L 35.50 93.00 L 35.50 92.00 L 35.50 91.00 L 35.50 90.00 L 35.50 89.00 L 35.50 88.00 L 35.50 87.00 L 35.50 86.00 L 35.50 85.00 L 35.50 84.00 L 35.50 83.00 L 35.50 82.00 L 35.50 81.00 L 35.50 80.00 L 35.50 79.00 L 35.50 78.00 L 35.50 77.00 L 35.50 76.00 L 35.50 75.00 L 35.50 74.00 L 35.50 73.00 L 35.50 72.00 L 35.50 71.00 L 35.50 70.00 L 35.50 69.00 L 35.50 68.00 L 35.50 67.00 L 35.50 66.00 L 35.50 65.00 L 35.50 64.00 L 35.50 63.00 L 35.50 62.00 L 35.50 61.00 L 35.50 60.00 L 35.50 59.00 L 35.50 58.00 L 35.50 57.00 L 35.50 56.00 L 35.50 55.00 L 35.50 54.00 L 35.50 53.00 L 35.50 52.00 L 35.50 51.00 L 35.50 50.00 L 35.50 49.00 L 35.50 48.00 L 35.50 47.00 L 36.00 46.50 L 36.50 46.00 L 36.50 45.00 L 37.00 44.50 L 37.50 44.00 L 37.50 43.00 L 38.00 42.50 L 38.50 42.00 L 39.00 41.50 L 39.50 41.00 L 40.00 40.50 L 40.50 40.00 L 41.00 39.50 L 41.50 39.00 L 42.00 38.50 L 42.50 38.00 L 43.00 37.50 L 44.00 37.50 L 44.50 37.00 L 45.00 36.50 L 46.00 36.50 L 47.00 36.50 L 47.50 36.00 L 48.00 35.50 L 49.00 35.50 L 50.00 35.50 L 51.00 35.50 L 52.00 35.50 L 53.00 35.50 L 54.00 35.50 L 55.00 35.50 L 56.00 35.50 L 57.00 35.50 L 58.00 35.50 L 59.00 35.50 L 60.00 35.50 L 61.00 35.50 L 62.00 35.50 L 63.00 35.50 L 64.00 35.50 L 65.00 35.50 L 66.00 35.50 L 67.00 35.50 L 68.00 35.50 L 69.00 35.50 L 70.00 35.50 L 71.00 35.50 L 72.00 35.50 L 73.00 35.50 L 74.00 35.50 L 75.00 35.50 L 76.00 35.50 L 77.00 35.50 L 78.00 35.50 L 79.00 35.50 L 80.00 35.50 L 81.00 35.50 L 82.00 35.50 L 83.00 35.50 L 84.00 35.50 L 85.00 35.50 L 86.00 35.50 L 87.00 35.50 L 88.00 35.50 L 89.00 35.50 L 90.00 35.50 L 91.00 35.50 L 92.00 35.50 L 93.00 35.50 L 94.00 35.50 L 95.00 35.50 L 96.00 35.50 L 97.00 35.50 L 98.00 35.50 L 99.00 35.50 L 100.00 35.50 L 101.00 35.50 L 101.50 36.00 L 101.50 37.00 L 101.50 38.00 L 101.50 39.00 L 101.50 40.00 L 101.50 41.00 L 101.50 42.00 L 101.50 43.00 L 101.50 44.00 L 101.50 45.00 L 101.50 46.00 L 101.50 47.00 L 101.50 48.00 L 101.50 49.00 L 101.50 50.00 L 101.50 51.00 L 101.50 52.00 L 101.00 52.50 L 100.00 52.50 L 99.00 52.50 L 98.00 52.50 L 97.00 52.50 L 96.00 52.50 L 95.00 52.50 L 94.00 52.50 L 93.00 52.50 L 92.00 52.50 L 91.00 52.50 L 90.00 52.50 L 89.00 52.50 L 88.00 52.50 L 87.00 52.50 L 86.00 52.50 L 85.00 52.50 L 84.00 52.50 L 83.00 52.50 L 82.00 52.50 L 81.00 52.50 L 80.00 52.50 L 79.00 52.50 L 78.00 52.50 L 77.00 52.50 L 76.00 52.50 L 75.00 52.50 L 74.00 52.50 L 73.00 52.50 L 72.00 52.50 L 71.00 52.50 L 70.00 52.50 L 69.00 52.50 L 68.00 52.50 L 67.00 52.50 L 66.00 52.50 L 65.00 52.50 L 64.00 52.50 L 63.00 52.50 L 62.00 52.50 L 61.00 52.50 L 60.00 52.50 L 59.00 52.50 L 58.00 52.50 L 57.00 52.50 L 56.00 52.50 L 55.00 52.50 L 54.00 52.50 L 53.00 52.50 L 52.50 53.00 L 52.50 54.00 L 52.50 55.00 L 52.50 56.00 L 52.50 57.00 L 52.50 58.00 L 52.50 59.00 L 52.50 60.00 L 52.50 61.00 L 52.50 62.00 L 52.50 63.00 L 52.50 64.00 L 52.50 65.00 L 52.50 66.00 L 52.50 67.00 L 52.50 68.00 L 52.50 69.00 L 52.50 70.00 L 52.50 71.00 L 52.50 72.00 L 52.50 73.00 L 52.50 74.00 L 52.50 75.00 L 52.50 76.00 L 52.50 77.00 L 52.50 78.00 L 52.50 79.00 L 52.50 80.00 L 52.50 81.00 L 52.50 82.00 L 52.50 83.00 L 52.50 84.00 L 52.50 85.00 L 52.50 86.00 L 52.50 87.00 L 52.50 88.00 L 52.50 89.00 L 53.00 89.50 L 54.00 89.50 L 55.00 89.50 L 56.00 89.50 L 57.00 89.50 L 58.00 89.50 L 59.00 89.50 L 60.00 89.50 L 61.00 89.50 L 62.00 89.50 L 63.00 89.50 L 64.00 89.50 L 65.00 89.50 L 66.00 89.50 L 67.00 89.50 L 68.00 89.50 L 69.00 89.50 L 70.00 89.50 L 71.00 89.50 L 72.00 89.50 L 73.00 89.50 L 74.00 89.50 L 75.00 89.50 L 76.00 89.50 L 77.00 89.50 L 78.00 89.50 L 79.00 89.50 L 80.00 89.50 L 81.00 89.50 L 82.00 89.50 L 83.00 89.50 L 84.00 89.50 L 85.00 89.50 L 86.00 89.50 L 87.00 89.50 L 88.00 89.50 L 88.50 89.00 L 88.50 88.00 L 88.50 87.00 L 88.50 86.00 L 88.50 85.00 L 88.50 84.00 L 88.50 83.00 L 88.50 82.00 L 88.50 81.00 L 88.50 80.00 L 88.00 79.50 L 87.00 79.50 L 86.00 79.50 L 85.00 79.50 L 84.00 79.50 L 83.00 79.50 L 82.00 79.50 L 81.00 79.50 L 80.00 79.50 L 79.00 79.50 L 78.00 79.50 L 77.00 79.50 L 76.00 79.50 L 75.00 79.50 L 74.00 79.50 L 73.50 79.00 L 73.50 78.00 L 73.50 77.00 L 73.50 76.00 L 73.50 75.00 L 73.50 74.00 L 73.50 73.00 L 73.50 72.00 L 73.50 71.00 L 73.50 70.00 L 73.50 69.00 L 73.50 68.00 L 73.50 67.00 L 73.50 66.00 L 73.50 65.00 L 73.50 64.00 L 73.50 63.00 L 74.00 62.50 L 75.00 62.50 L 76.00 62.50 L 77.00 62.50 L 78.00 62.50 L 79.00 62.50 L 80.00 62.50 L 81.00 62.50 L 82.00 62.50 L 83.00 62.50 L 84.00 62.50 L 85.00 62.50 L 86.00 62.50 L 87.00 62.50 L 88.00 62.50 L 89.00 62.50 L 90.00 62.50 L 91.00 62.50 L 92.00 62.50 L 93.00 62.50 L 94.00 62.50 L 95.00 62.50 L 96.00 62.50 L 97.00 62.50 L 98.00 62.50 L 99.00 62.50 L 100.00 62.50 L 101.00 62.50 L 101.50 63.00 L 101.50 64.00 L 101.50 65.00 L 101.50 66.00 L 101.50 67.00 L 101.50 68.00 L 101.50 69.00 L 101.50 70.00 L 101.50 71.00 L 101.50 72.00 L 101.50 73.00 L 101.50 74.00 L 101.50 75.00 L 101.50 76.00 L 101.50 77.00 L 101.50 78.00 L 101.50 79.00 L 101.50 80.00 L 101.50 81.00 L 101.50 82.00 L 101.50 83.00 L 101.50 84.00 L 101.50 85.00 L 101.50 86.00 L 101.50 87.00 L 101.50 88.00 L 101.50 89.00 L 101.50 90.00 L 101.50 91.00 L 101.50 92.00 L 101.50 93.00 L 101.50 94.00 L 101.50 95.00 L 101.50 96.00 L 101.50 97.00 L 101.50 98.00 L 101.50 99.00 L 101.50 100.00 L 101.50 101.00 L 101.50 102.00 L 101.00 102.50 L 100.00 102.50 L 99.50 103.00 L 99.00 103.50 L 98.50 104.00 L 98.00 104.50 L 97.00 104.50 L 96.50 105.00 L 96.00 105.50 L 95.00 105.50 L 94.00 105.50 L 93.50 106.00 L 93.00 106.50 Z " fill="#ffffff" fill-rule="evenodd"/>
</svg>
